# xmcd CD database file
#
# Track frame offsets:
#	180
#	31395
#	64815
#	89222
#	121466
#	147612
#	164553
#	191585
#	230667
#	248513
#	281128
#
# Disc length: 4378 seconds
#
# Revision: 0
# Processed by: cddbd v1.4PL0 Copyright (c) Steve Scherf et al.
# Submitted via: CDex 1.40Beta8
#
DISCID=ac11180b
DTITLE=The Chump Change Band - Ain't It Funny
DYEAR=1997
DGENRE=Blues
TTITLE0=Lee's Place
TTITLE1=Funny How Time Slips Away
TTITLE2=Something That Makes You Laugh
TTITLE3=Blues In Ken Major
TTITLE4=Be Bop Boogie and Blues
TTITLE5=What Cha Don't Know Won't Hurt You
TTITLE6=Bad Case of Pussy Whoop
TTITLE7=Doggy Style
TTITLE8=Somebody Stole My Girl and Gone
TTITLE9=Big Brass Bed Blues
TTITLE10=Don't Have To Go To the Crossroads
EXTD=YEAR: 1997 ID3G: 0
EXTT0=
EXTT1=
EXTT2=
EXTT3=
EXTT4=
EXTT5=
EXTT6=
EXTT7=
EXTT8=
EXTT9=
EXTT10=
PLAYORDER=
